<svg width="154" height="154" viewBox="0 0 154 154" fill="none" xmlns="http://www.w3.org/2000/svg">
<rect x="52" y="5" width="97.5468" height="145.784" rx="20.3669" fill="black"/>
<path d="M69.3184 2C56.294 2 45.7354 12.5586 45.7354 25.583V127.417C45.7354 140.419 56.2575 150.963 69.251 150.999C69.2731 150.999 69.2952 151 69.3174 151H52.167C39.1426 151 28.584 140.441 28.584 127.417V25.583C28.584 12.5586 39.1426 2.00003 52.167 2H69.3184Z" fill="black"/>
<path d="M45.7344 2C32.71 2.00003 22.1514 12.5586 22.1514 25.583V127.417C22.1514 140.441 32.71 151 45.7344 151H28.583C15.5588 151 5 140.441 5 127.417V25.583C5 12.5587 15.5588 2.00018 28.583 2H45.7344Z" fill="black"/>
<path d="M110.617 60C106.716 59.9981 103.085 62.0673 101 65.4827C99.2299 62.5866 96.3277 60.6307 93.054 60.1286C89.7801 59.6245 86.4549 60.6232 83.9484 62.8623C81.4419 65.1014 80 68.3599 80 71.7885C80 83.6108 96.9041 93.409 101 97C105.096 93.4091 122 83.6108 122 71.7885C122 68.6621 120.801 65.664 118.666 63.4534C116.531 61.2426 113.636 60 110.617 60Z" fill="#F00B0B"/>
</svg>
